<?xml version="1.0" encoding="utf-8"?>
<svg xmlns="http://www.w3.org/2000/svg" viewBox="458.861 0 33.545 33.227" xmlns:bx="https://boxy-svg.com">
  <defs>
    <bx:export>
      <bx:file format="svg" href="#object-0" path="Bez nazwy.svg"/>
      <bx:file format="svg" href="#object-1" path="Bez nazwy 2.svg"/>
    </bx:export>
  </defs>
  <ellipse style="fill: rgb(255, 255, 255); stroke: rgb(0, 98, 204);" cx="475.118" cy="16.322" rx="14.846" ry="14.846" id="object-0"/>
  <path fill-rule="evenodd" clip-rule="evenodd" d="M 469.661 11.086 C 469.661 8.187 472.011 5.836 474.911 5.836 C 477.356 5.836 479.412 7.509 479.995 9.773 C 480.098 10.174 480.507 10.416 480.908 10.312 C 481.31 10.209 481.551 9.8 481.448 9.399 C 480.699 6.488 478.057 4.336 474.911 4.336 C 471.183 4.336 468.161 7.358 468.161 11.086 L 468.161 13.141 C 467.046 13.224 466.32 13.434 465.789 13.965 C 464.911 14.844 464.911 16.258 464.911 19.086 C 464.911 21.915 464.911 23.329 465.789 24.207 C 466.668 25.086 468.082 25.086 470.911 25.086 L 478.911 25.086 C 481.739 25.086 483.153 25.086 484.032 24.207 C 484.911 23.329 484.911 21.915 484.911 19.086 C 484.911 16.258 484.911 14.844 484.032 13.965 C 483.153 13.086 481.739 13.086 478.911 13.086 L 470.911 13.086 C 470.459 13.086 470.044 13.086 469.661 13.09 L 469.661 11.086 Z M 476.911 19.086 C 476.911 20.191 476.015 21.086 474.911 21.086 C 473.806 21.086 472.911 20.191 472.911 19.086 C 472.911 17.982 473.806 17.086 474.911 17.086 C 476.015 17.086 476.911 17.982 476.911 19.086 Z" style="fill: rgb(0, 98, 204); stroke: rgb(0, 0, 0);" id="object-1"/>
</svg>